<!-- Generated by IcoMoon.io -->
<svg version="1.1" xmlns="http://www.w3.org/2000/svg" width="1024" height="1024" viewBox="0 0 1024 1024">
<title></title>
<g id="icomoon-ignore">
</g>
<path fill="#fff" d="M749.029 1013.768l51.295-51.299c6.85-6.836 10.264-14.71 10.264-23.612 0-8.88-3.414-16.751-10.264-23.587l-403.244-403.265 403.233-403.247c6.85-6.839 10.264-14.71 10.264-23.601 0-8.895-3.414-16.765-10.264-23.601l-51.299-51.292c-6.836-6.85-14.706-10.264-23.601-10.264-8.888 0-16.758 3.425-23.594 10.264l-478.151 478.14c-6.839 6.836-10.257 14.71-10.257 23.601s3.418 16.751 10.257 23.583l478.151 478.18c6.839 6.836 14.71 10.232 23.594 10.232 8.895 0 16.765-3.396 23.615-10.232z"></path>
</svg>
